# xmcd
#
# Track frame offsets: 
#        150
#        13768
#        32451
#        45626
#        62590
#        74973
#        90248
#        105233
#        121070
#        134647
#        152219
#        169106
#        190825
#        206817
#        227905
#
# Disc length: 3241 seconds
#
# Revision: 0
# Processed by: cddbd v1.5.2PL0 Copyright (c) Steve Scherf et al.
# Submitted via: ExactAudioCopy v0.99pb3
#
DISCID=cb0ca70f
DTITLE=Tim McGraw - McGraw - The ultimate collection cd1
DYEAR=2016
DGENRE=Country
TTITLE0=Indian outlaw
TTITLE1=Don't take the girl
TTITLE2=Down on the farm
TTITLE3=Not a moment too soon
TTITLE4=Refried dreams
TTITLE5=I like it, I love it
TTITLE6=Can't be really gone
TTITLE7=All I want is a life
TTITLE8=She never lets it go to her heart
TTITLE9=Maybe we should just sleep on it
TTITLE10=It's your love
TTITLE11=Everywhere
TTITLE12=Just to see you smile
TTITLE13=One of these days
TTITLE14=Where the green grass grows
EXTD=
EXTT0=
EXTT1=
EXTT2=
EXTT3=
EXTT4=
EXTT5=
EXTT6=
EXTT7=
EXTT8=
EXTT9=
EXTT10=
EXTT11=
EXTT12=
EXTT13=
EXTT14=
PLAYORDER=
